<!DOCTYPE svg PUBLIC "-//W3C//DTD SVG 1.1//EN" "http://www.w3.org/Graphics/SVG/1.1/DTD/svg11.dtd">
<!-- Uploaded to: SVG Repo, www.svgrepo.com, Transformed by: SVG Repo Mixer Tools -->
<svg fill="#000000" width="256px" height="256px" viewBox="0 0 24.00 24.00" id="cursor-right-2" data-name="Flat Line" xmlns="http://www.w3.org/2000/svg" class="icon flat-line">
<g id="SVGRepo_bgCarrier" stroke-width="0"/>
<g id="SVGRepo_tracerCarrier" stroke-linecap="round" stroke-linejoin="round"/>
<g id="SVGRepo_iconCarrier">
<path id="secondary" d="M20.52,12.89l-8.06,5a1,1,0,0,1-1.41-1.2L11.84,14H4a1,1,0,0,1-1-1V11a1,1,0,0,1,1-1h7.84l-.79-2.66a1,1,0,0,1,1.41-1.2l8.06,5A1.07,1.07,0,0,1,20.52,12.89Z" style="fill: #561029; stroke-width:0.72;"/>
<path id="primary" d="M20.52,12.89l-8.06,5a1,1,0,0,1-1.41-1.2L11.84,14H4a1,1,0,0,1-1-1V11a1,1,0,0,1,1-1h7.84l-.79-2.66a1,1,0,0,1,1.41-1.2l8.06,5A1.07,1.07,0,0,1,20.52,12.89Z" style="fill: none; stroke: #000000; stroke-linecap: round; stroke-linejoin: round; stroke-width:0.72;"/>
</g>
</svg>