<!DOCTYPE svg PUBLIC "-//W3C//DTD SVG 1.1//EN" "http://www.w3.org/Graphics/SVG/1.1/DTD/svg11.dtd">
<!-- Uploaded to: SVG Repo, www.svgrepo.com, Transformed by: SVG Repo Mixer Tools -->
<svg width="256px" height="256px" viewBox="0 0 64 64" id="svg5" version="1.1" xml:space="preserve" xmlns="http://www.w3.org/2000/svg" xmlns:svg="http://www.w3.org/2000/svg" fill="#000000">
<g id="SVGRepo_bgCarrier" stroke-width="0"/>
<g id="SVGRepo_tracerCarrier" stroke-linecap="round" stroke-linejoin="round"/>
<g id="SVGRepo_iconCarrier"> <defs id="defs2"/> <g id="layer1" transform="translate(-96,-480)"> <path d="m 106,489 h 49 v 6 h -49 z" id="path61006" style="fill:#3e4f59;fill-opacity:1;fill-rule:evenodd;stroke-width:2;stroke-linecap:round;stroke-linejoin:round;stroke-miterlimit:4.1"/> <path d="m 106,495 h 49 v 40 h -49 z" id="path61008" style="fill:#acbec2;fill-opacity:1;fill-rule:evenodd;stroke-width:2.00001;stroke-linecap:round;stroke-linejoin:round;stroke-miterlimit:4.1"/> <path d="m 106,495 v 40 h 29.76953 a 28.484051,41.392605 35.599482 0 0 18.625,-40 z" id="path61010" style="fill:#e8edee;fill-opacity:1;fill-rule:evenodd;stroke:none;stroke-width:2.00002;stroke-linecap:round;stroke-linejoin:round;stroke-miterlimit:4.1"/> <path d="m 108,488 c -1.64501,0 -3,1.355 -3,3 v 40 c 0,0.55229 0.44772,1 1,1 0.55229,0 1,-0.44771 1,-1 v -40 c 0,-0.56413 0.43587,-1 1,-1 h 45 c 0.56413,0 1,0.43587 1,1 v 3 h -42 c -0.55228,0 -1,0.44772 -1,1 0,0.55229 0.44772,1 1,1 h 42 v 37 c 0,0.56413 -0.43587,1 -1,1 h -49 c -0.55228,0 -1,0.44772 -1,1 0,0.55229 0.44772,1 1,1 h 49 c 1.64501,0 3,-1.35499 3,-3 0,-14 0,-28 0,-42 0,-1.645 -1.35499,-3 -3,-3 z" id="path61012" style="color:#000000;fill:#000000;fill-rule:evenodd;stroke-linecap:round;stroke-linejoin:round;stroke-miterlimit:4.1"/> <path d="m 151,491 c -0.55228,0 -1,0.44772 -1,1 0,0.55229 0.44772,1 1,1 0.55229,0 1,-0.44771 1,-1 0,-0.55228 -0.44771,-1 -1,-1 z" id="path61014" style="color:#000000;fill:#ed7161;fill-opacity:1;fill-rule:evenodd;stroke-linecap:round;stroke-linejoin:round;stroke-miterlimit:4.1;-inkscape-stroke:none"/> <path d="m 147,491 c -0.55228,0 -1,0.44772 -1,1 0,0.55229 0.44772,1 1,1 0.55229,0 1,-0.44771 1,-1 0,-0.55228 -0.44771,-1 -1,-1 z" id="path61016" style="color:#000000;fill:#ecba16;fill-opacity:1;fill-rule:evenodd;stroke-linecap:round;stroke-linejoin:round;stroke-miterlimit:4.1;-inkscape-stroke:none"/> <path d="m 143,491 c -0.55228,0 -1,0.44772 -1,1 0,0.55229 0.44772,1 1,1 0.55229,0 1,-0.44771 1,-1 0,-0.55228 -0.44771,-1 -1,-1 z" id="path61018" style="color:#000000;fill:#42b05c;fill-opacity:1;fill-rule:evenodd;stroke-linecap:round;stroke-linejoin:round;stroke-miterlimit:4.1;-inkscape-stroke:none"/> <path d="m 101,534 a 1,1 0 0 0 -1,1 1,1 0 0 0 1,1 1,1 0 0 0 1,-1 1,1 0 0 0 -1,-1 z" id="path61020" style="color:#000000;fill:#000000;fill-rule:evenodd;stroke-linecap:round;stroke-linejoin:round;stroke-miterlimit:4.1;-inkscape-stroke:none"/> <path d="m 109,494 c -0.55228,0 -1,0.44772 -1,1 0,0.55229 0.44772,1 1,1 0.55229,0 1,-0.44771 1,-1 0,-0.55228 -0.44771,-1 -1,-1 z" id="path61022" style="color:#000000;fill:#000000;fill-rule:evenodd;stroke-linecap:round;stroke-linejoin:round;stroke-miterlimit:4.1;-inkscape-stroke:none"/> <path d="m 119.75734,515 4.24264,-4.24264 4.24265,4.24264 -4.24265,4.24264 z" id="path2191" style="color:#000000;fill:#fe73c5;fill-opacity:1;fill-rule:evenodd;stroke-width:2;stroke-linecap:round;stroke-linejoin:round;stroke-miterlimit:4.1;-inkscape-stroke:none"/> <path d="M 122.58594,512.17188 119.75781,515 124,519.24219 l 2.82812,-2.82813 z" id="path30275" style="color:#000000;fill:#fe93d3;fill-opacity:1;fill-rule:evenodd;stroke-width:2;stroke-linecap:round;stroke-linejoin:round;stroke-miterlimit:4.1;-inkscape-stroke:none"/> <ellipse cx="124" cy="527" id="circle6812" rx="4" ry="3" style="fill:#0075d3;fill-opacity:1;fill-rule:evenodd;stroke:none;stroke-width:2;stroke-linecap:round;stroke-linejoin:round;stroke-miterlimit:4.1"/> <path d="M 121.5293,526.66992 A 7.2834349,3.3301682 0 0 0 120.02344,526.75 4,3 0 0 0 120,527 a 4,3 0 0 0 4,3 4,3 0 0 0 3.66016,-1.79688 7.2834349,3.3301682 0 0 0 -6.13086,-1.5332 z" id="ellipse30129" style="fill:#0588e2;fill-opacity:1;fill-rule:evenodd;stroke:none;stroke-width:2;stroke-linecap:round;stroke-linejoin:round;stroke-miterlimit:4.1"/> <path d="m 128,503 a 4,3 0 0 1 -4,3 4,3 0 0 1 -4,-3 4,3 0 0 1 4,-3 4,3 0 0 1 4,3 z" id="path6810" style="fill:#0075d3;fill-opacity:1;fill-rule:evenodd;stroke:none;stroke-width:2;stroke-linecap:round;stroke-linejoin:round;stroke-miterlimit:4.1"/> <path d="m 121.5293,501.71289 a 7.2834349,3.3301682 0 0 0 -1.16602,0.0488 A 4,3 0 0 0 120,503 a 4,3 0 0 0 4,3 4,3 0 0 0 3.94531,-2.53125 7.2834349,3.3301682 0 0 0 -6.41601,-1.75586 z" id="path30127" style="fill:#0588e2;fill-opacity:1;fill-rule:evenodd;stroke:none;stroke-width:2;stroke-linecap:round;stroke-linejoin:round;stroke-miterlimit:4.1"/> <path d="m 135,512 h 8 c 0.554,0 1,0.446 1,1 v 4 c 0,0.554 -0.446,1 -1,1 h -8 c -0.554,0 -1,-0.446 -1,-1 v -4 c 0,-0.554 0.446,-1 1,-1 z" id="rect6816" style="fill:#0075d3;fill-opacity:1;fill-rule:evenodd;stroke:none;stroke-width:2;stroke-linecap:round;stroke-linejoin:round;stroke-miterlimit:4.1"/> <path d="m 135,512 c -0.554,0 -1,0.446 -1,1 v 4 c 0,0.554 0.446,1 1,1 h 5.47852 a 5.5581188,6.2095404 0 0 0 0.0801,-1 5.5581188,6.2095404 0 0 0 -2.26367,-5 z" id="path30116" style="fill:#0588e2;fill-opacity:1;fill-rule:evenodd;stroke:none;stroke-width:2;stroke-linecap:round;stroke-linejoin:round;stroke-miterlimit:4.1"/> <path d="m 124,499 c -1.30723,0 -2.50859,0.38877 -3.42773,1.07812 C 119.65309,500.76751 119,501.81128 119,503 c 0,1.18872 0.65309,2.2325 1.57227,2.92188 0.67871,0.50903 1.51226,0.85232 2.42773,0.99804 v 3.42383 l -3.94922,3.94922 a 1.0001,1.0001 0 0 0 0,1.41406 L 123,519.65625 V 523 a 1,1 0 0 0 0.01,0.0781 c -0.91923,0.14485 -1.75643,0.4892 -2.4375,1 C 119.65309,524.76751 119,525.81128 119,527 c 0,0.61264 0.17406,1.19962 0.46875,1.70508 a 1,1 0 0 0 1.36914,0.35937 1,1 0 0 0 0.35938,-1.36718 C 121.06323,527.46737 121,527.24127 121,527 c 0,-0.46813 0.24295,-0.92586 0.77148,-1.32227 C 122.30002,525.28133 123.0981,525 124,525 c 0.9019,0 1.69998,0.28133 2.22852,0.67773 C 126.75705,526.07414 127,526.53187 127,527 c 0,0.46813 -0.24295,0.92586 -0.77148,1.32227 C 125.69998,528.71867 124.9019,529 124,529 a 1,1 0 0 0 -1,1 1,1 0 0 0 1,1 c 1.30723,0 2.50859,-0.38876 3.42773,-1.07812 0.65049,-0.48786 1.16531,-1.15329 1.41211,-1.92188 H 139 a 1.0001,1.0001 0 0 0 1,-1 v -2 a 1,1 0 0 0 -1,-1 1,1 0 0 0 -1,1 v 1 h -9.16016 c -0.2468,-0.76859 -0.76162,-1.43401 -1.41211,-1.92188 -0.68107,-0.5108 -1.51827,-0.85515 -2.4375,-1 A 1,1 0 0 0 125,523 v -3.34375 L 128.6582,516 h 4.17578 A 1.000005,1.000005 0 0 0 133,515.98047 V 517 c 0,1.0907 0.9093,2 2,2 h 3 v 2 a 1,1 0 0 0 1,1 1,1 0 0 0 1,-1 v -2 h 3 c 1.0907,0 2,-0.9093 2,-2 v -4 c 0,-1.0907 -0.9093,-2 -2,-2 a 1,1 0 0 0 -1,1 1,1 0 0 0 1,1 v 4 h -8 v -4 h 4 a 1,1 0 0 0 1,-1 1,1 0 0 0 -1,-1 h -4 c -1.0907,0 -2,0.9093 -2,2 v 1.01953 A 1.000005,1.000005 0 0 0 132.83398,514 H 128.6582 L 125,510.34375 v -3.42383 c 0.91547,-0.14572 1.74902,-0.48901 2.42773,-0.99804 C 128.34691,505.2325 129,504.18872 129,503 c 0,-0.87881 -0.36059,-1.69263 -0.91602,-2.32031 a 1,1 0 0 0 -1.4121,-0.0859 1,1 0 0 0 -0.0859,1.41211 C 126.87063,502.32759 127,502.65391 127,503 c 0,0.46813 -0.24295,0.92586 -0.77148,1.32227 C 125.69998,504.71867 124.9019,505 124,505 c -0.9019,0 -1.69998,-0.28133 -2.22852,-0.67773 C 121.24295,503.92586 121,503.46813 121,503 c 0,-0.46813 0.24295,-0.92586 0.77148,-1.32227 C 122.30002,501.28133 123.0981,501 124,501 a 1,1 0 0 0 1,-1 1,1 0 0 0 -1,-1 z m 0,13.17188 L 126.82812,515 124,517.82812 121.17188,515 Z" id="path2193" style="color:#000000;fill:#000000;fill-rule:evenodd;stroke-linecap:round;stroke-linejoin:round;stroke-miterlimit:4.1;-inkscape-stroke:none"/> </g> </g>
</svg>